<?xml version="1.0" encoding="utf-8"?>
<!-- Generator: Adobe Illustrator 26.0.1, SVG Export Plug-In . SVG Version: 6.00 Build 0)  -->
<svg version="1.1" id="Calque_1" xmlns="http://www.w3.org/2000/svg" xmlns:xlink="http://www.w3.org/1999/xlink" x="0px" y="0px"
	 viewBox="0 0 653.7 96.7" style="enable-background:new 0 0 653.7 96.7;" xml:space="preserve">
<style type="text/css">
	.st0{fill:#09000E;}
</style>
<polygon class="st0" points="135,18.1 144.6,16.3 144.6,15.3 122.2,15.3 122.2,16.3 130.5,18.1 130.5,80.6 122.2,82.4 122.2,83.5 
	170.9,83.5 170.9,62.8 170.4,62.8 165.4,81.6 135,81.6 "/>
<path class="st0" d="M231.3,60.3c0,13.5-7.8,21.6-20.8,21.6c-15.3,0-22.4-7.7-22.4-24.2V18.1l8.5-1.8v-1h-21.5v1l8.5,1.8v41
	c0,16.4,8.9,25.4,25.1,25.4c16.2,0,25.1-9,25.1-25.4V18l8.4-1.7v-1h-21.3v1l10.6,1.6V60.3z"/>
<polygon class="st0" points="307.6,75.7 263.1,15.3 250.5,15.3 250.5,16.3 258.8,18.1 258.8,80.6 250.5,82.4 250.5,83.5 270.9,83.5 
	270.9,82.4 261.2,80.3 261.2,20.5 308.9,84 309.8,84 309.8,18.1 318.1,16.3 318.1,15.3 298.5,15.3 298.5,16.3 307.6,18.1 "/>
<path class="st0" d="M353.6,14.7h-1l-27,66.5l-5.4,1.2v1h17.9v-1l-9.8-1.4l9.2-24.1h28.1l9.6,24.1l-9.4,1.4v1h20.8v-1l-6.1-1.3
	L353.6,14.7z M338.4,55L351.5,21L364.9,55H338.4z"/>
<path class="st0" d="M422.4,48.5l1.1-0.4c9-2.9,14.2-8.9,14.2-16.5c0-10.3-8.6-16.4-23.1-16.4h-20.1v1l8.5,1.8v62.6l-8.5,1.8v1h21
	v-1l-8-1.9V50.3h10.6l21.2,33.2h10.9v-1l-6.6-1.3L422.4,48.5z M416.1,48.4h-8.4V17.2h7.8c10.5,0,17,6.1,17,15.9
	C432.5,41.9,425.6,48.4,416.1,48.4z"/>
<path class="st0" d="M482.7,15.3h-23.8v1l8.5,1.8v62.6l-8.5,1.8v1h23.1c22.6,0,36.6-14.3,36.6-37.3
	C518.6,27.4,504.5,15.3,482.7,15.3z M484,81.6h-12V17.2h11.5c18.6,0,30.1,12.4,30.1,32.3C513.5,68.7,501.6,81.6,484,81.6z"/>
<path class="st0" d="M551.5,14.7h-1l-27,66.5l-5.4,1.2v1H536v-1l-9.8-1.4l9.2-24.1h28.1l9.6,24.1l-9.4,1.4v1h20.8v-1l-6.1-1.3
	L551.5,14.7z M536.2,55L549.3,21L562.7,55H536.2z"/>
<path class="st0" d="M617.3,14.2C598.6,14.2,585,29,585,49.4c0,20.4,13.6,35.2,32.3,35.2c18.8,0,32.4-14.8,32.4-35.2
	C649.7,29,636.1,14.2,617.3,14.2z M619.6,83.1c-17.2,0-29.8-15.7-29.8-37.3c0-18.2,10.3-30.4,25.7-30.4c17.1,0,29.4,15.6,29.4,37.2
	C645,70.9,634.8,83.1,619.6,83.1z"/>
<g>
	<path class="st0" d="M33.6,5.7L12.2,49.9c0,0,0,0,0,0c1.6-3,10.7-20.3,16.8-12c-0.5,4.2-3.5,9.8-10.8,17.5C8.4,65.9,4.4,67.5,4,68
		C4,68,18,63,39.8,91c-5.1-6.8-24.4-35-9.6-51.1c0.6,1.3,1.2,2.9,1.7,4.9L42,81.4l-6.4-29.5c-1.3-5.9-2-12.8,0.7-16.7
		c1.7-2.4,4.2-3.1,7.1-3.1c-4.4,0-7.4-0.4-10.2-2.4C29.3,26.6,26.8,20,33.6,5.7z"/>
	<path class="st0" d="M53,5.7l21.3,44.2c0,0,0,0,0,0c-1.6-3-10.7-20.3-16.8-12c0.5,4.2,3.5,9.8,10.8,17.5
		C78.2,65.9,82.2,67.5,82.6,68c0,0-14.1-5-35.8,23.1c5.1-6.8,24.4-35,9.6-51.1c-0.6,1.3-1.2,2.9-1.7,4.9L44.6,81.4L51,51.8
		c1.3-5.9,2-12.8-0.7-16.7c-1.7-2.4-4.2-3.1-7.1-3.1c4.4,0,7.4-0.4,10.2-2.4C57.3,26.6,59.8,20,53,5.7z"/>
</g>
</svg>
